# xmcd
#
# Track frame offsets: 
#        150
#        83944
#        123796
#        168924
#        200236
#        235991
#
# Disc length: 3750 seconds
#
# Revision: 1
# Processed by: cddbd v1.5.2PL0 Copyright (c) Steve Scherf et al.
# Submitted via: ExactAudioCopy v0.99pb4
#
DISCID=4a0ea406
DTITLE=Heinrich Neuhaus - Chopin&Scriabin
DYEAR=2005
DGENRE=Classical
TTITLE0=Chopin - Concerto No.1 in E minor, Op.11 - I. Allegro maestoso
TTITLE1=Chopin - Concerto No.1 in E minor, Op.11 - II. Romance. Larghe
TTITLE1=tto
TTITLE2=Chopin - Concerto No.1 in E minor, Op.11 - III. Rondo. Vivace
TTITLE3=Scriabin - Concerto in F sharp minor, Op.20 - I. Allegro
TTITLE4=Scriabin - Concerto in F sharp minor, Op.20 - II. Andante
TTITLE5=Scriabin - Concerto in F sharp minor, Op.20 - III. Allegro
EXTD=
EXTT0=
EXTT1=
EXTT2=
EXTT3=
EXTT4=
EXTT5=
PLAYORDER=
